<mxfile host="app.diagrams.net" modified="2024-02-06T18:01:21.660Z" agent="Mozilla/5.0 (Macintosh; Intel Mac OS X 10_15_7) AppleWebKit/605.1.15 (KHTML, like Gecko) Version/17.0 Safari/605.1.15" version="23.1.1" etag="zu5sag-ptbTq8UOSh4O4" type="github">
  <diagram name="Страница — 1" id="psyRujmpq8XxnTGjb7pk">
    <mxGraphModel>
      <root>
        <mxCell id="0" />
        <mxCell id="1" parent="0" />
      </root>
    </mxGraphModel>
  </diagram>
</mxfile>
